<svg xmlns="http://www.w3.org/2000/svg" width="720" height="140" viewBox="0 0 720 140" font-family="-apple-system,BlinkMacSystemFont,Segoe UI,Helvetica,Arial,sans-serif"><style>svg{--cf-bg:#0d1117;--cf-bg-alt:#161b22;--cf-border:#21262d;--cf-text:#e6edf3;--cf-text-dim:#8b949e;--cf-text-faint:#6e7681;--cf-accent:#a78bfa;--cf-accent-soft:rgba(167,139,250,0.16);--cf-green:#3fb950;--cf-amber:#d29922;--cf-red:#f85149;--cf-spark:#a78bfa;--cf-spark-bg:rgba(167,139,250,0.18)}@media (prefers-color-scheme: light){svg{--cf-bg:#ffffff;--cf-bg-alt:#f6f8fa;--cf-border:#d0d7de;--cf-text:#1f2328;--cf-text-dim:#656d76;--cf-text-faint:#8c959f;--cf-accent:#6f42c1;--cf-accent-soft:rgba(111,66,193,0.12);--cf-green:#1a7f37;--cf-amber:#9a6700;--cf-red:#cf222e;--cf-spark:#6f42c1;--cf-spark-bg:rgba(111,66,193,0.12)}}</style><rect width="720" height="140" rx="12" fill="var(--cf-bg)" stroke="var(--cf-border)"/><text x="18" y="26" font-size="13" font-weight="600" fill="var(--cf-text)">braedonsaunders/bidwright</text><text x="702" y="26" text-anchor="end" font-size="10" fill="var(--cf-text-faint)" font-family="ui-monospace,SFMono-Regular,Menlo,monospace">@c6dd50f</text><g transform="translate(18,46)"><text x="0" y="0" font-size="9" font-weight="600" fill="var(--cf-text-dim)" letter-spacing="0.8">FILES</text><text x="0" y="28" font-size="22" font-weight="700" fill="var(--cf-text)">1.1K</text><g transform="translate(0,40)"><svg width="64" height="14" viewBox="0 0 64 14" preserveAspectRatio="none"><path d="M0 0 L2.13 14 L4.27 14 L6.4 14 L8.53 14 L10.67 14 L12.8 14 L14.93 14 L17.07 14 L19.2 14 L21.33 14 L23.47 14 L25.6 13.02 L27.73 13.02 L29.87 13.02 L32 13.02 L34.13 13.02 L36.27 12.7 L38.4 12.7 L40.53 12.7 L42.67 12.7 L44.8 12.7 L46.93 12.7 L49.07 12.7 L51.2 12.7 L53.33 12.7 L55.47 13.35 L57.6 13.35 L59.73 13.35 L61.87 13.35 L64 8.47 L64 14 L0 14 Z" fill="var(--cf-spark-bg)" stroke="none"/><path d="M0 0 L2.13 14 L4.27 14 L6.4 14 L8.53 14 L10.67 14 L12.8 14 L14.93 14 L17.07 14 L19.2 14 L21.33 14 L23.47 14 L25.6 13.02 L27.73 13.02 L29.87 13.02 L32 13.02 L34.13 13.02 L36.27 12.7 L38.4 12.7 L40.53 12.7 L42.67 12.7 L44.8 12.7 L46.93 12.7 L49.07 12.7 L51.2 12.7 L53.33 12.7 L55.47 13.35 L57.6 13.35 L59.73 13.35 L61.87 13.35 L64 8.47" fill="none" stroke="var(--cf-spark)" stroke-width="1.4" stroke-linecap="round" stroke-linejoin="round"/></svg></g></g><g transform="translate(154.8,46)"><text x="0" y="0" font-size="9" font-weight="600" fill="var(--cf-text-dim)" letter-spacing="0.8">FNS</text><text x="0" y="28" font-size="22" font-weight="700" fill="var(--cf-text)">7K</text><g transform="translate(0,40)"><svg width="64" height="14" viewBox="0 0 64 14" preserveAspectRatio="none"><path d="M0 14 L2.13 13.9 L4.27 13.9 L6.4 13.86 L8.53 13.86 L10.67 13.86 L12.8 13.86 L14.93 13.86 L17.07 13.86 L19.2 13.86 L21.33 13.86 L23.47 13.76 L25.6 12.04 L27.73 12.04 L29.87 12.04 L32 12.04 L34.13 12.04 L36.27 11.95 L38.4 11.95 L40.53 11.95 L42.67 11.95 L44.8 11.95 L46.93 11.95 L49.07 11.66 L51.2 11.32 L53.33 10.99 L55.47 13.9 L57.6 13.9 L59.73 13.9 L61.87 13.81 L64 0 L64 14 L0 14 Z" fill="var(--cf-spark-bg)" stroke="none"/><path d="M0 14 L2.13 13.9 L4.27 13.9 L6.4 13.86 L8.53 13.86 L10.67 13.86 L12.8 13.86 L14.93 13.86 L17.07 13.86 L19.2 13.86 L21.33 13.86 L23.47 13.76 L25.6 12.04 L27.73 12.04 L29.87 12.04 L32 12.04 L34.13 12.04 L36.27 11.95 L38.4 11.95 L40.53 11.95 L42.67 11.95 L44.8 11.95 L46.93 11.95 L49.07 11.66 L51.2 11.32 L53.33 10.99 L55.47 13.9 L57.6 13.9 L59.73 13.9 L61.87 13.81 L64 0" fill="none" stroke="var(--cf-spark)" stroke-width="1.4" stroke-linecap="round" stroke-linejoin="round"/></svg></g></g><g transform="translate(291.6,46)"><text x="0" y="0" font-size="9" font-weight="600" fill="var(--cf-text-dim)" letter-spacing="0.8">LOC</text><text x="0" y="28" font-size="22" font-weight="700" fill="var(--cf-text)">446.1K</text><g transform="translate(0,40)"><svg width="64" height="14" viewBox="0 0 64 14" preserveAspectRatio="none"><path d="M0 14 L2.13 13.33 L4.27 13.32 L6.4 13.29 L8.53 13.26 L10.67 13.26 L12.8 13.25 L14.93 13.25 L17.07 13.25 L19.2 13.25 L21.33 13.24 L23.47 13.18 L25.6 10.32 L27.73 10.31 L29.87 10.31 L32 10.31 L34.13 10.31 L36.27 10.24 L38.4 10.18 L40.53 10.18 L42.67 10.17 L44.8 10.17 L46.93 10.16 L49.07 10.1 L51.2 9.91 L53.33 9.81 L55.47 12.2 L57.6 12.2 L59.73 12.2 L61.87 12.14 L64 0 L64 14 L0 14 Z" fill="var(--cf-spark-bg)" stroke="none"/><path d="M0 14 L2.13 13.33 L4.27 13.32 L6.4 13.29 L8.53 13.26 L10.67 13.26 L12.8 13.25 L14.93 13.25 L17.07 13.25 L19.2 13.25 L21.33 13.24 L23.47 13.18 L25.6 10.32 L27.73 10.31 L29.87 10.31 L32 10.31 L34.13 10.31 L36.27 10.24 L38.4 10.18 L40.53 10.18 L42.67 10.17 L44.8 10.17 L46.93 10.16 L49.07 10.1 L51.2 9.91 L53.33 9.81 L55.47 12.2 L57.6 12.2 L59.73 12.2 L61.87 12.14 L64 0" fill="none" stroke="var(--cf-spark)" stroke-width="1.4" stroke-linecap="round" stroke-linejoin="round"/></svg></g></g><g transform="translate(428.40000000000003,46)"><text x="0" y="0" font-size="9" font-weight="600" fill="var(--cf-text-dim)" letter-spacing="0.8">LANGS</text><text x="0" y="28" font-size="22" font-weight="700" fill="var(--cf-text)">23</text><g transform="translate(0,40)"><svg width="64" height="14" viewBox="0 0 64 14" preserveAspectRatio="none"><path d="M0 14 L2.13 0 L4.27 0 L6.4 0 L8.53 0 L10.67 0 L12.8 0 L14.93 0 L17.07 0 L19.2 0 L21.33 0 L23.47 0 L25.6 0 L27.73 0 L29.87 0 L32 0 L34.13 0 L36.27 0 L38.4 0 L40.53 0 L42.67 0 L44.8 0 L46.93 0 L49.07 0 L51.2 0 L53.33 0 L55.47 0 L57.6 0 L59.73 0 L61.87 0 L64 0 L64 14 L0 14 Z" fill="var(--cf-spark-bg)" stroke="none"/><path d="M0 14 L2.13 0 L4.27 0 L6.4 0 L8.53 0 L10.67 0 L12.8 0 L14.93 0 L17.07 0 L19.2 0 L21.33 0 L23.47 0 L25.6 0 L27.73 0 L29.87 0 L32 0 L34.13 0 L36.27 0 L38.4 0 L40.53 0 L42.67 0 L44.8 0 L46.93 0 L49.07 0 L51.2 0 L53.33 0 L55.47 0 L57.6 0 L59.73 0 L61.87 0 L64 0" fill="none" stroke="var(--cf-spark)" stroke-width="1.4" stroke-linecap="round" stroke-linejoin="round"/></svg></g></g><g transform="translate(565.2,46)"><text x="0" y="0" font-size="9" font-weight="600" fill="var(--cf-text-dim)" letter-spacing="0.8">TESTS</text><text x="0" y="28" font-size="22" font-weight="700" fill="var(--cf-text)">95</text><g transform="translate(0,40)"><svg width="64" height="14" viewBox="0 0 64 14" preserveAspectRatio="none"><path d="M0 7 L2.13 7 L4.27 7 L6.4 7 L8.53 7 L10.67 7 L12.8 7 L14.93 7 L17.07 7 L19.2 7 L21.33 7 L23.47 7 L25.6 7 L27.73 7 L29.87 7 L32 7 L34.13 7 L36.27 7 L38.4 7 L40.53 7 L42.67 7 L44.8 7 L46.93 7 L49.07 7 L51.2 7 L53.33 7 L55.47 7 L57.6 7 L59.73 7 L61.87 7 L64 7 L64 14 L0 14 Z" fill="var(--cf-spark-bg)" stroke="none"/><path d="M0 7 L2.13 7 L4.27 7 L6.4 7 L8.53 7 L10.67 7 L12.8 7 L14.93 7 L17.07 7 L19.2 7 L21.33 7 L23.47 7 L25.6 7 L27.73 7 L29.87 7 L32 7 L34.13 7 L36.27 7 L38.4 7 L40.53 7 L42.67 7 L44.8 7 L46.93 7 L49.07 7 L51.2 7 L53.33 7 L55.47 7 L57.6 7 L59.73 7 L61.87 7 L64 7" fill="none" stroke="var(--cf-spark)" stroke-width="1.4" stroke-linecap="round" stroke-linejoin="round"/></svg></g></g><a href="https://github.com/braedonsaunders/codeflow" target="_blank"><text x="702" y="130" text-anchor="end" font-size="9" fill="var(--cf-text-faint)">powered by <tspan font-weight="600" fill="var(--cf-accent)">codeflow</tspan></text></a></svg>