<svg xmlns="http://www.w3.org/2000/svg" width="720" height="140" viewBox="0 0 720 140" font-family="-apple-system,BlinkMacSystemFont,Segoe UI,Helvetica,Arial,sans-serif"><style>svg{--cf-bg:#0d1117;--cf-bg-alt:#161b22;--cf-border:#21262d;--cf-text:#e6edf3;--cf-text-dim:#8b949e;--cf-text-faint:#6e7681;--cf-accent:#a78bfa;--cf-accent-soft:rgba(167,139,250,0.16);--cf-green:#3fb950;--cf-amber:#d29922;--cf-red:#f85149;--cf-spark:#a78bfa;--cf-spark-bg:rgba(167,139,250,0.18)}@media (prefers-color-scheme: light){svg{--cf-bg:#ffffff;--cf-bg-alt:#f6f8fa;--cf-border:#d0d7de;--cf-text:#1f2328;--cf-text-dim:#656d76;--cf-text-faint:#8c959f;--cf-accent:#6f42c1;--cf-accent-soft:rgba(111,66,193,0.12);--cf-green:#1a7f37;--cf-amber:#9a6700;--cf-red:#cf222e;--cf-spark:#6f42c1;--cf-spark-bg:rgba(111,66,193,0.12)}}</style><rect width="720" height="140" rx="12" fill="var(--cf-bg)" stroke="var(--cf-border)"/><text x="18" y="26" font-size="13" font-weight="600" fill="var(--cf-text)">braedonsaunders/bidwright</text><text x="702" y="26" text-anchor="end" font-size="10" fill="var(--cf-text-faint)" font-family="ui-monospace,SFMono-Regular,Menlo,monospace">@9607bc8</text><g transform="translate(18,46)"><text x="0" y="0" font-size="9" font-weight="600" fill="var(--cf-text-dim)" letter-spacing="0.8">FILES</text><text x="0" y="28" font-size="22" font-weight="700" fill="var(--cf-text)">1.1K</text><g transform="translate(0,40)"><svg width="64" height="14" viewBox="0 0 64 14" preserveAspectRatio="none"><path d="M0 11.07 L2.13 11.07 L4.27 9.12 L6.4 1.95 L8.53 1.95 L10.67 1.95 L12.8 1.95 L14.93 1.95 L17.07 1.95 L19.2 1.95 L21.33 1.95 L23.47 1.95 L25.6 1.95 L27.73 1.95 L29.87 1.95 L32 1.95 L34.13 1.95 L36.27 1.95 L38.4 1.95 L40.53 1.95 L42.67 0 L44.8 0 L46.93 0 L49.07 0 L51.2 14 L53.33 14 L55.47 14 L57.6 14 L59.73 14 L61.87 14 L64 14 L64 14 L0 14 Z" fill="var(--cf-spark-bg)" stroke="none"/><path d="M0 11.07 L2.13 11.07 L4.27 9.12 L6.4 1.95 L8.53 1.95 L10.67 1.95 L12.8 1.95 L14.93 1.95 L17.07 1.95 L19.2 1.95 L21.33 1.95 L23.47 1.95 L25.6 1.95 L27.73 1.95 L29.87 1.95 L32 1.95 L34.13 1.95 L36.27 1.95 L38.4 1.95 L40.53 1.95 L42.67 0 L44.8 0 L46.93 0 L49.07 0 L51.2 14 L53.33 14 L55.47 14 L57.6 14 L59.73 14 L61.87 14 L64 14" fill="none" stroke="var(--cf-spark)" stroke-width="1.4" stroke-linecap="round" stroke-linejoin="round"/></svg></g></g><g transform="translate(154.8,46)"><text x="0" y="0" font-size="9" font-weight="600" fill="var(--cf-text-dim)" letter-spacing="0.8">FNS</text><text x="0" y="28" font-size="22" font-weight="700" fill="var(--cf-text)">6.7K</text><g transform="translate(0,40)"><svg width="64" height="14" viewBox="0 0 64 14" preserveAspectRatio="none"><path d="M0 14 L2.13 14 L4.27 9.74 L6.4 4.19 L8.53 4.04 L10.67 4.04 L12.8 4.04 L14.93 4.04 L17.07 4.04 L19.2 4.04 L21.33 4.04 L23.47 3.97 L25.6 3.9 L27.73 3.9 L29.87 3.9 L32 3.9 L34.13 3.9 L36.27 3.9 L38.4 3.9 L40.53 3.9 L42.67 0.29 L44.8 0.22 L46.93 0.22 L49.07 0.22 L51.2 0.07 L53.33 0.07 L55.47 0 L57.6 0 L59.73 0 L61.87 0 L64 0 L64 14 L0 14 Z" fill="var(--cf-spark-bg)" stroke="none"/><path d="M0 14 L2.13 14 L4.27 9.74 L6.4 4.19 L8.53 4.04 L10.67 4.04 L12.8 4.04 L14.93 4.04 L17.07 4.04 L19.2 4.04 L21.33 4.04 L23.47 3.97 L25.6 3.9 L27.73 3.9 L29.87 3.9 L32 3.9 L34.13 3.9 L36.27 3.9 L38.4 3.9 L40.53 3.9 L42.67 0.29 L44.8 0.22 L46.93 0.22 L49.07 0.22 L51.2 0.07 L53.33 0.07 L55.47 0 L57.6 0 L59.73 0 L61.87 0 L64 0" fill="none" stroke="var(--cf-spark)" stroke-width="1.4" stroke-linecap="round" stroke-linejoin="round"/></svg></g></g><g transform="translate(291.6,46)"><text x="0" y="0" font-size="9" font-weight="600" fill="var(--cf-text-dim)" letter-spacing="0.8">LOC</text><text x="0" y="28" font-size="22" font-weight="700" fill="var(--cf-text)">431.9K</text><g transform="translate(0,40)"><svg width="64" height="14" viewBox="0 0 64 14" preserveAspectRatio="none"><path d="M0 14 L2.13 13.99 L4.27 10.25 L6.4 3.83 L8.53 3.82 L10.67 3.81 L12.8 3.81 L14.93 3.81 L17.07 3.81 L19.2 3.81 L21.33 3.81 L23.47 3.77 L25.6 3.7 L27.73 3.7 L29.87 3.7 L32 3.69 L34.13 3.69 L36.27 3.69 L38.4 3.68 L40.53 3.67 L42.67 0.68 L44.8 0.62 L46.93 0.6 L49.07 0.6 L51.2 0.07 L53.33 0.06 L55.47 0.03 L57.6 0.02 L59.73 0.01 L61.87 0.01 L64 0 L64 14 L0 14 Z" fill="var(--cf-spark-bg)" stroke="none"/><path d="M0 14 L2.13 13.99 L4.27 10.25 L6.4 3.83 L8.53 3.82 L10.67 3.81 L12.8 3.81 L14.93 3.81 L17.07 3.81 L19.2 3.81 L21.33 3.81 L23.47 3.77 L25.6 3.7 L27.73 3.7 L29.87 3.7 L32 3.69 L34.13 3.69 L36.27 3.69 L38.4 3.68 L40.53 3.67 L42.67 0.68 L44.8 0.62 L46.93 0.6 L49.07 0.6 L51.2 0.07 L53.33 0.06 L55.47 0.03 L57.6 0.02 L59.73 0.01 L61.87 0.01 L64 0" fill="none" stroke="var(--cf-spark)" stroke-width="1.4" stroke-linecap="round" stroke-linejoin="round"/></svg></g></g><g transform="translate(428.40000000000003,46)"><text x="0" y="0" font-size="9" font-weight="600" fill="var(--cf-text-dim)" letter-spacing="0.8">LANGS</text><text x="0" y="28" font-size="22" font-weight="700" fill="var(--cf-text)">23</text><g transform="translate(0,40)"><svg width="64" height="14" viewBox="0 0 64 14" preserveAspectRatio="none"><path d="M0 14 L2.13 14 L4.27 14 L6.4 14 L8.53 14 L10.67 14 L12.8 14 L14.93 14 L17.07 14 L19.2 14 L21.33 14 L23.47 14 L25.6 14 L27.73 14 L29.87 14 L32 14 L34.13 14 L36.27 14 L38.4 14 L40.53 14 L42.67 14 L44.8 14 L46.93 14 L49.07 14 L51.2 0 L53.33 0 L55.47 0 L57.6 0 L59.73 0 L61.87 0 L64 0 L64 14 L0 14 Z" fill="var(--cf-spark-bg)" stroke="none"/><path d="M0 14 L2.13 14 L4.27 14 L6.4 14 L8.53 14 L10.67 14 L12.8 14 L14.93 14 L17.07 14 L19.2 14 L21.33 14 L23.47 14 L25.6 14 L27.73 14 L29.87 14 L32 14 L34.13 14 L36.27 14 L38.4 14 L40.53 14 L42.67 14 L44.8 14 L46.93 14 L49.07 14 L51.2 0 L53.33 0 L55.47 0 L57.6 0 L59.73 0 L61.87 0 L64 0" fill="none" stroke="var(--cf-spark)" stroke-width="1.4" stroke-linecap="round" stroke-linejoin="round"/></svg></g></g><g transform="translate(565.2,46)"><text x="0" y="0" font-size="9" font-weight="600" fill="var(--cf-text-dim)" letter-spacing="0.8">TESTS</text><text x="0" y="28" font-size="22" font-weight="700" fill="var(--cf-text)">95</text><g transform="translate(0,40)"><svg width="64" height="14" viewBox="0 0 64 14" preserveAspectRatio="none"><path d="M0 7 L2.13 7 L4.27 7 L6.4 7 L8.53 7 L10.67 7 L12.8 7 L14.93 7 L17.07 7 L19.2 7 L21.33 7 L23.47 7 L25.6 7 L27.73 7 L29.87 7 L32 7 L34.13 7 L36.27 7 L38.4 7 L40.53 7 L42.67 7 L44.8 7 L46.93 7 L49.07 7 L51.2 7 L53.33 7 L55.47 7 L57.6 7 L59.73 7 L61.87 7 L64 7 L64 14 L0 14 Z" fill="var(--cf-spark-bg)" stroke="none"/><path d="M0 7 L2.13 7 L4.27 7 L6.4 7 L8.53 7 L10.67 7 L12.8 7 L14.93 7 L17.07 7 L19.2 7 L21.33 7 L23.47 7 L25.6 7 L27.73 7 L29.87 7 L32 7 L34.13 7 L36.27 7 L38.4 7 L40.53 7 L42.67 7 L44.8 7 L46.93 7 L49.07 7 L51.2 7 L53.33 7 L55.47 7 L57.6 7 L59.73 7 L61.87 7 L64 7" fill="none" stroke="var(--cf-spark)" stroke-width="1.4" stroke-linecap="round" stroke-linejoin="round"/></svg></g></g><a href="https://github.com/braedonsaunders/codeflow" target="_blank"><text x="702" y="130" text-anchor="end" font-size="9" fill="var(--cf-text-faint)">powered by <tspan font-weight="600" fill="var(--cf-accent)">codeflow</tspan></text></a></svg>