<svg xmlns="http://www.w3.org/2000/svg" width="720" height="140" viewBox="0 0 720 140" font-family="-apple-system,BlinkMacSystemFont,Segoe UI,Helvetica,Arial,sans-serif"><style>svg{--cf-bg:#0d1117;--cf-bg-alt:#161b22;--cf-border:#21262d;--cf-text:#e6edf3;--cf-text-dim:#8b949e;--cf-text-faint:#6e7681;--cf-accent:#a78bfa;--cf-accent-soft:rgba(167,139,250,0.16);--cf-green:#3fb950;--cf-amber:#d29922;--cf-red:#f85149;--cf-spark:#a78bfa;--cf-spark-bg:rgba(167,139,250,0.18)}@media (prefers-color-scheme: light){svg{--cf-bg:#ffffff;--cf-bg-alt:#f6f8fa;--cf-border:#d0d7de;--cf-text:#1f2328;--cf-text-dim:#656d76;--cf-text-faint:#8c959f;--cf-accent:#6f42c1;--cf-accent-soft:rgba(111,66,193,0.12);--cf-green:#1a7f37;--cf-amber:#9a6700;--cf-red:#cf222e;--cf-spark:#6f42c1;--cf-spark-bg:rgba(111,66,193,0.12)}}</style><rect width="720" height="140" rx="12" fill="var(--cf-bg)" stroke="var(--cf-border)"/><text x="18" y="26" font-size="13" font-weight="600" fill="var(--cf-text)">braedonsaunders/bidwright</text><text x="702" y="26" text-anchor="end" font-size="10" fill="var(--cf-text-faint)" font-family="ui-monospace,SFMono-Regular,Menlo,monospace">@2ce53dc</text><g transform="translate(18,46)"><text x="0" y="0" font-size="9" font-weight="600" fill="var(--cf-text-dim)" letter-spacing="0.8">FILES</text><text x="0" y="28" font-size="22" font-weight="700" fill="var(--cf-text)">1.1K</text><g transform="translate(0,40)"><svg width="64" height="14" viewBox="0 0 64 14" preserveAspectRatio="none"><path d="M0 1.95 L2.13 0 L4.27 0 L6.4 0 L8.53 0 L10.67 14 L12.8 14 L14.93 14 L17.07 14 L19.2 14 L21.33 14 L23.47 14 L25.6 14 L27.73 14 L29.87 14 L32 14 L34.13 13.02 L36.27 13.02 L38.4 13.02 L40.53 13.02 L42.67 13.02 L44.8 12.7 L46.93 12.7 L49.07 12.7 L51.2 12.7 L53.33 12.7 L55.47 12.7 L57.6 12.7 L59.73 12.7 L61.87 12.7 L64 13.35 L64 14 L0 14 Z" fill="var(--cf-spark-bg)" stroke="none"/><path d="M0 1.95 L2.13 0 L4.27 0 L6.4 0 L8.53 0 L10.67 14 L12.8 14 L14.93 14 L17.07 14 L19.2 14 L21.33 14 L23.47 14 L25.6 14 L27.73 14 L29.87 14 L32 14 L34.13 13.02 L36.27 13.02 L38.4 13.02 L40.53 13.02 L42.67 13.02 L44.8 12.7 L46.93 12.7 L49.07 12.7 L51.2 12.7 L53.33 12.7 L55.47 12.7 L57.6 12.7 L59.73 12.7 L61.87 12.7 L64 13.35" fill="none" stroke="var(--cf-spark)" stroke-width="1.4" stroke-linecap="round" stroke-linejoin="round"/></svg></g></g><g transform="translate(154.8,46)"><text x="0" y="0" font-size="9" font-weight="600" fill="var(--cf-text-dim)" letter-spacing="0.8">FNS</text><text x="0" y="28" font-size="22" font-weight="700" fill="var(--cf-text)">6.7K</text><g transform="translate(0,40)"><svg width="64" height="14" viewBox="0 0 64 14" preserveAspectRatio="none"><path d="M0 14 L2.13 7.86 L4.27 7.74 L6.4 7.74 L8.53 7.74 L10.67 7.49 L12.8 7.49 L14.93 7.37 L17.07 7.37 L19.2 7.37 L21.33 7.37 L23.47 7.37 L25.6 7.37 L27.73 7.37 L29.87 7.37 L32 7.12 L34.13 2.7 L36.27 2.7 L38.4 2.7 L40.53 2.7 L42.67 2.7 L44.8 2.46 L46.93 2.46 L49.07 2.46 L51.2 2.46 L53.33 2.46 L55.47 2.46 L57.6 1.72 L59.73 0.86 L61.87 0 L64 7.49 L64 14 L0 14 Z" fill="var(--cf-spark-bg)" stroke="none"/><path d="M0 14 L2.13 7.86 L4.27 7.74 L6.4 7.74 L8.53 7.74 L10.67 7.49 L12.8 7.49 L14.93 7.37 L17.07 7.37 L19.2 7.37 L21.33 7.37 L23.47 7.37 L25.6 7.37 L27.73 7.37 L29.87 7.37 L32 7.12 L34.13 2.7 L36.27 2.7 L38.4 2.7 L40.53 2.7 L42.67 2.7 L44.8 2.46 L46.93 2.46 L49.07 2.46 L51.2 2.46 L53.33 2.46 L55.47 2.46 L57.6 1.72 L59.73 0.86 L61.87 0 L64 7.49" fill="none" stroke="var(--cf-spark)" stroke-width="1.4" stroke-linecap="round" stroke-linejoin="round"/></svg></g></g><g transform="translate(291.6,46)"><text x="0" y="0" font-size="9" font-weight="600" fill="var(--cf-text-dim)" letter-spacing="0.8">LOC</text><text x="0" y="28" font-size="22" font-weight="700" fill="var(--cf-text)">433K</text><g transform="translate(0,40)"><svg width="64" height="14" viewBox="0 0 64 14" preserveAspectRatio="none"><path d="M0 14 L2.13 7.45 L4.27 7.32 L6.4 7.29 L8.53 7.28 L10.67 6.12 L12.8 6.1 L14.93 6.04 L17.07 6 L19.2 5.99 L21.33 5.99 L23.47 5.97 L25.6 5.97 L27.73 5.97 L29.87 5.96 L32 5.85 L34.13 0.88 L36.27 0.87 L38.4 0.87 L40.53 0.87 L42.67 0.87 L44.8 0.74 L46.93 0.65 L49.07 0.64 L51.2 0.63 L53.33 0.63 L55.47 0.62 L57.6 0.51 L59.73 0.17 L61.87 0 L64 4.15 L64 14 L0 14 Z" fill="var(--cf-spark-bg)" stroke="none"/><path d="M0 14 L2.13 7.45 L4.27 7.32 L6.4 7.29 L8.53 7.28 L10.67 6.12 L12.8 6.1 L14.93 6.04 L17.07 6 L19.2 5.99 L21.33 5.99 L23.47 5.97 L25.6 5.97 L27.73 5.97 L29.87 5.96 L32 5.85 L34.13 0.88 L36.27 0.87 L38.4 0.87 L40.53 0.87 L42.67 0.87 L44.8 0.74 L46.93 0.65 L49.07 0.64 L51.2 0.63 L53.33 0.63 L55.47 0.62 L57.6 0.51 L59.73 0.17 L61.87 0 L64 4.15" fill="none" stroke="var(--cf-spark)" stroke-width="1.4" stroke-linecap="round" stroke-linejoin="round"/></svg></g></g><g transform="translate(428.40000000000003,46)"><text x="0" y="0" font-size="9" font-weight="600" fill="var(--cf-text-dim)" letter-spacing="0.8">LANGS</text><text x="0" y="28" font-size="22" font-weight="700" fill="var(--cf-text)">23</text><g transform="translate(0,40)"><svg width="64" height="14" viewBox="0 0 64 14" preserveAspectRatio="none"><path d="M0 14 L2.13 14 L4.27 14 L6.4 14 L8.53 14 L10.67 0 L12.8 0 L14.93 0 L17.07 0 L19.2 0 L21.33 0 L23.47 0 L25.6 0 L27.73 0 L29.87 0 L32 0 L34.13 0 L36.27 0 L38.4 0 L40.53 0 L42.67 0 L44.8 0 L46.93 0 L49.07 0 L51.2 0 L53.33 0 L55.47 0 L57.6 0 L59.73 0 L61.87 0 L64 0 L64 14 L0 14 Z" fill="var(--cf-spark-bg)" stroke="none"/><path d="M0 14 L2.13 14 L4.27 14 L6.4 14 L8.53 14 L10.67 0 L12.8 0 L14.93 0 L17.07 0 L19.2 0 L21.33 0 L23.47 0 L25.6 0 L27.73 0 L29.87 0 L32 0 L34.13 0 L36.27 0 L38.4 0 L40.53 0 L42.67 0 L44.8 0 L46.93 0 L49.07 0 L51.2 0 L53.33 0 L55.47 0 L57.6 0 L59.73 0 L61.87 0 L64 0" fill="none" stroke="var(--cf-spark)" stroke-width="1.4" stroke-linecap="round" stroke-linejoin="round"/></svg></g></g><g transform="translate(565.2,46)"><text x="0" y="0" font-size="9" font-weight="600" fill="var(--cf-text-dim)" letter-spacing="0.8">TESTS</text><text x="0" y="28" font-size="22" font-weight="700" fill="var(--cf-text)">95</text><g transform="translate(0,40)"><svg width="64" height="14" viewBox="0 0 64 14" preserveAspectRatio="none"><path d="M0 7 L2.13 7 L4.27 7 L6.4 7 L8.53 7 L10.67 7 L12.8 7 L14.93 7 L17.07 7 L19.2 7 L21.33 7 L23.47 7 L25.6 7 L27.73 7 L29.87 7 L32 7 L34.13 7 L36.27 7 L38.4 7 L40.53 7 L42.67 7 L44.8 7 L46.93 7 L49.07 7 L51.2 7 L53.33 7 L55.47 7 L57.6 7 L59.73 7 L61.87 7 L64 7 L64 14 L0 14 Z" fill="var(--cf-spark-bg)" stroke="none"/><path d="M0 7 L2.13 7 L4.27 7 L6.4 7 L8.53 7 L10.67 7 L12.8 7 L14.93 7 L17.07 7 L19.2 7 L21.33 7 L23.47 7 L25.6 7 L27.73 7 L29.87 7 L32 7 L34.13 7 L36.27 7 L38.4 7 L40.53 7 L42.67 7 L44.8 7 L46.93 7 L49.07 7 L51.2 7 L53.33 7 L55.47 7 L57.6 7 L59.73 7 L61.87 7 L64 7" fill="none" stroke="var(--cf-spark)" stroke-width="1.4" stroke-linecap="round" stroke-linejoin="round"/></svg></g></g><a href="https://github.com/braedonsaunders/codeflow" target="_blank"><text x="702" y="130" text-anchor="end" font-size="9" fill="var(--cf-text-faint)">powered by <tspan font-weight="600" fill="var(--cf-accent)">codeflow</tspan></text></a></svg>